# xmcd
#
# Track frame offsets:
#	150
#	11255
#	23430
#	35832
#	48832
#	61835
#	76052
#	87782
#	98657
#	111925
#	123337
#	134365
#	145032
#	158915
#	170212
#	192985
#
# Disc length: 2585 seconds
#
# Revision: 2
# Processed by: cddbd v1.5.2PL0 Copyright (c) Steve Scherf et al.
# Submitted via: audiograbber 1.83.01
#
DISCID=c40a1710
DTITLE=Various Artist - Classic Country - Vol. 13 - SC8712
DYEAR=2001
DGENRE=Country
TTITLE0=Johnny Cash - Luther Played The Boogie
TTITLE1=Buck Owens - My Heart Skips A Beat
TTITLE2=Marty Robbins - Begging To You
TTITLE3=Ray Price - Pride
TTITLE4=Hank Snow - Miller's Cave
TTITLE5=Conway Twitty - The Image Of Me
TTITLE6=David Houston - With One Exception
TTITLE7=Jim Reeves - I'm Gonna Change Everything
TTITLE8=Conway Twitty - To See My Angel Cry
TTITLE9=Jim Reeves - I'm Gettin' Better
TTITLE10=Carl Smith - You Are The One
TTITLE11=Marty Robbins - Just Married
TTITLE12=Ray Price - One More Time
TTITLE13=Patsy Cline - Back In Baby's Arms
TTITLE14=Charley Pride - Just Between You And Me
TTITLE15=Data - Data Trackbin16
EXTD=
EXTT0=
EXTT1=
EXTT2=
EXTT3=
EXTT4=
EXTT5=
EXTT6=
EXTT7=
EXTT8=
EXTT9=
EXTT10=
EXTT11=
EXTT12=
EXTT13=
EXTT14=
EXTT15=
PLAYORDER=
